<?xml version="1.0"?>
<svg width="143" height="57" xmlns="http://www.w3.org/2000/svg">
 <g>
  <title>background</title>
  <rect fill="none" id="canvas_background" height="59" width="145" y="-1" x="-1"/>
 </g>
 <g xmlns="http://www.w3.org/2000/svg">
  <title>Layer 1</title>
  <path id="svg_1" d="m112.620003,0.270001c5.139999,0.359999 10.589996,0.15 15.290001,2.599999c5.019989,2.349999 10.149994,4.46 15.110001,6.96c-0.059998,3.77 -0.059998,7.540001 -0.01001,11.309999c-1.289993,0.040001 -2.569992,0.09 -3.839996,0.130001c-0.050003,8.110001 0,16.23 -0.020004,24.34c-1.829987,-0.010002 -3.659988,-0.029999 -5.479996,-0.040001c0.009995,1.970001 0.020004,3.939999 0.040009,5.91c-1.87001,0.010002 -3.740005,0.02 -5.610001,0.029999c0.009995,1.759998 0.019989,3.52 0.039993,5.290005c-11.629997,0.089996 -23.260002,0.029999 -34.879997,0.029999c0,-1.360001 0.009995,-2.730003 0.019997,-4.09c-2.059998,-0.010002 -4.129997,-0.02 -6.190002,-0.030003c0.010002,-1.849998 0.020004,-3.700001 0.040001,-5.549999c-2.159996,-0.029999 -4.32,-0.060001 -6.479996,-0.079998c-0.040001,-4.130001 -0.040001,-8.260002 -0.029999,-12.380001c-0.790001,-0.010002 -2.360001,-0.02 -3.150002,-0.02c0.010002,-2.139999 0.019997,-4.290001 0.029999,-6.43c-3.870003,0 -7.75,0 -11.620003,0.060001c0.020004,2.109997 0.030006,4.23 0.050003,6.34c-0.809998,0.019997 -2.420006,0.049999 -3.23,0.07c0.009998,4.049999 0.009998,8.110001 0.02,12.169998c-2.07,0.010002 -4.130001,0.010002 -6.200001,0.010002c-0.02,1.939999 -0.029999,3.879997 -0.040001,5.82c-2.060001,0.009998 -4.130001,0.009998 -6.189999,0.009998c0.009998,1.369999 0.02,2.740002 0.02,4.109997c-11.620003,0 -23.250002,0.010002 -34.880001,0c0,-1.779999 0,-3.559998 0.01,-5.339996c-1.900001,-0.009998 -3.790001,-0.009998 -5.68,-0.02c0.02,-1.959999 0.04,-3.919998 0.05,-5.869999c-1.88,-0.02 -3.77,-0.029999 -5.66,-0.049999c0.04,-8.060001 0,-16.130001 0.01,-24.190002c-1.39,-0.02 -2.77,-0.039997 -4.16,-0.059998l0,-11.370001c5.15,-2.58 10.51,-4.700001 15.700001,-7.200001c4.609999,-2.33 9.929998,-2.09 14.949999,-2.49c0,0.96 0,2.86 0,3.81c0.67,-0.200001 2.01,-0.6 2.680002,-0.8c-0.010002,2.209999 -0.010002,4.41 -0.02,6.610001c10.419998,0.019999 20.84,0 31.259998,0.009998c0.019997,2.550001 0.029999,5.1 0.029999,7.650002c4.720001,0.01 9.440002,0.019999 14.169998,-0.01c-0.029999,-2.550001 -0.029999,-5.09 -0.029999,-7.640001c10.480003,-0.029999 20.970001,0.050001 31.450005,-0.039999c-0.029999,-2.15 -0.060005,-4.299999 -0.100006,-6.46c0.640007,0.15 1.920006,0.45 2.570007,0.599999c-0.010002,-0.929999 -0.030006,-2.78 -0.040001,-3.709999z" fill="#ffa500"/>
  <path id="svg_2" d="m20.540001,3.58c2.709999,-0.889999 5.58,-1.05 8.4,-1.2c-0.030001,0.79 -0.1,2.36 -0.140001,3.14c0.390001,0.039999 1.17,0.109999 1.560001,0.139999c-0.030001,1.389999 -0.050001,2.780001 -0.07,4.18c-6.440001,-0.030001 -12.890001,0.07 -19.330001,-0.07c3.24,-1.99 6.29,-4.290001 9.580001,-6.190001z" fill="#292d2f"/>
  <path id="svg_3" d="m114.5,2.36c2.93,0.26 6,0.26 8.739998,1.43c3.120003,1.94 6.110008,4.089999 9.239998,6.009999c-6.449997,0.08 -12.899994,0.030001 -19.359993,0.030001c-0.020004,-1.41 -0.040001,-2.82 -0.060005,-4.23c0.400002,0 1.200005,-0.01 1.590004,-0.01c-0.029999,-0.81 -0.110001,-2.43 -0.150002,-3.23z" fill="#292d2f"/>
  <path id="svg_4" d="m10.72,16.219999c16.53,0 33.05,0.01 49.579999,0c-0.02,7.520002 0.02,15.039999 0.02,22.559999c-1.41,-0.009998 -2.82,-0.02 -4.220001,-0.029999c-0.009998,2.200001 0,4.41 0.030003,6.610001c-2.190002,0.079998 -4.370003,0.09 -6.560001,0.09c0.029999,2.239998 0.02,4.489998 -0.099998,6.73c-10.870003,-0.16 -21.740002,0.079998 -32.610001,-0.110001c-1.059999,-1.689999 -0.200001,-4.310001 -0.460001,-6.329998c-1.809999,-0.200001 -4.049999,0.459999 -5.62,-0.330002c-0.11,-9.73 -0.02,-19.459999 -0.059999,-29.190001z" fill="#292d2f"/>
  <path id="svg_5" d="m83.099998,16.23c16.529999,-0.01 33.050003,-0.01 49.57,0c0,9.830002 0.009995,19.650002 0.040009,29.48c-1.950012,0.02 -3.900009,0.040001 -5.860008,0.060001c0.209999,2.119999 0.200005,4.259998 -0.059998,6.380001c-11,-0.040001 -22,-0.010002 -32.989998,-0.02c-0.020004,-2.210003 -0.010002,-4.43 0.039993,-6.639999c-2.149994,-0.050003 -4.299995,-0.060001 -6.449997,-0.070004c0,-2.219997 0,-4.439999 -0.010002,-6.66c-1.419998,0 -2.839996,0 -4.269997,0c0.029999,-7.509998 0.040001,-15.019997 -0.010002,-22.529999z" fill="#292d2f"/>
 </g>
</svg>
